<svg xmlns="http://www.w3.org/2000/svg" viewBox="0 0 257.8 126.1"><path d="M240.2 30.7c-1.7-3.3.4-12.3 9.8-24.8 0 0-4.8 0-10-2.1S233.1 0 230.6 0 226 1.7 226 2.7c0 1 1 1.9 1.9 2.7 0 0 0 11.9-5 20.7-5 8.8-12.5 21.5-22.1 19.2-6.9-1.7-5.2-8.3-4.2-9.4 1.9-2.1 7.7-2.3 12.7-6.7 5-4.4 14.4-15.2 7.3-20.3-6.3-4.4-15 3.1-16.9 4.6-1.9 1.5-15.9 15.4-10.7 33.2 0 0-5.4 9.2-8.8 6.1 0 0 2.3-18.1 4.4-24.8 2.5-8.4-1-10.2-7.3-7.5-4.1 1.8-6.5 5-8.4 6.9-.6.6 0-1.7-.4-2.5 0 0-5.2.6-7.3 2.5-1 .9-5.8 33-10.6 36.5s-6.7 3.5-7.5 1.7c-.8-1.9 4.6-25.5 4.8-27.4.2-1.9-.8-7.5-10.4-2.7-3.3 1.7-6.1 6.3-6.9 6.3-.8 0-.2-2.3-.2-2.3s-3.8-.2-6.9 1.9c0 0-6.9 33.4-7.9 34.7-1 1.3-4.4 5.9-7.9 1.7-1-1.3 5.6-27.1 5.4-32.2 0 0-4.1-.5-6.3.8-1 .6-.6 1.9-2.3 2.1-1.7.2-2.3-1.3-4-.6-1.7.6-14.2 4.8-19.6 18.8-5.4 14-2.4 21.3-2.7 23.2 0 0 1.1.6-7.4 7.9 0 0 2.9-.5 3.9-.9 0 0 2.9-4.9 5.9-4.6 3 .2 3.4 1.6 6.4 1.1 3-.5 8.3-3.5 11.9-7.5 0 0 4.6 1.3 9.5-1.9 4.9-3.1 5.1-4.1 6-4 .9.1.5 1 1.6 1.1 1.1.1 5.3-.8 6.9-2.6 0 0 3.4-19.7 6-26.2s9-12.5 11.2-11c2.1 1.5-5 20.6-4.6 28.9.1 2.6 2.8 2.6 5.1 2.3 2.4-.4 6.1-1.9 8-4 1.9-2.1 2.5-2.3 3.1-2.3s.9.9 1.9.9c1 0 5.5-1.5 6.4-2.3.9-.8 5.6-25.7 7.5-28.7 1.9-3 6.1-9.7 9.6-8.8 2.7.7-7.1 28.7-4.6 31.5 2.5 2.8 11.3.2 17.8-9.7 0 0 2.1 3.4 6.9 3 4.8-.4 23.3-3.4 35.5-44.2 0 0 5.6 1.3 12.8-.4 0 0-2.4 3.2-7.1 9-7.3 8.9-12.2 19.4-2 20 2.1.1 7.8-3 9.3-2.1 1.5.9-1.9 4.4-5.6 5.5-3.8 1.1-46.5 18.5-54.1 21.2-7.6 2.6-113.3 42.8-129.4 49-16.2 6.1-24.1 10.1-24.1 10.1s4.9-1.3 43.7 5.9c0 0 32-32.5 98.4-57.2 12.3-4.6 50.3-20.1 56.2-22.3 17.3-6.7 20.2-8.6 17.3-15.7-.2 0-6.2 3.1-7.9-.2zm-39.4-9.6c4.4-7.3 10.6-10.6 11.5-10 .8.6 2.5 3.1-1.3 10.9-3.8 7.7-12.4 11.9-13.4 10.2-.6-1.1-1.4-3.5 3.2-11.1zM99.5 80s-9.8 11.7-12.3 5.8c-2.5-5.8-.5-25.2 12.3-31.3 4-1.9 4.4.4 4.4.4s-4 22.8-4.4 25.1z"/><path d="M72.9 44.2C68.1 33.4 51.5 28 51.5 28c1-2 5.6-6.8 9.4-7.1 3.8-.3 4.8 5.6 4.8 5.6 2.3.5 6.2-10.5-4.7-11C50.2 15 43.5 27 43.5 27 23.3 26 10.4 37.5 8.6 56 6.9 74.4 27.9 84.7 27.9 84.7c-1.2 11.1-5.6 19-5.6 19-7.7.7-25.8 5.1-21.7 15.4 1.9 4.6 10.7 3.7 16.9.2 6.2-3.5 10-8.6 10-8.6s25.7 1.3 37.9-15.4C84.2 70 76.2 51.5 72.9 44.2zm-59.2 70.6c-2.7 1.2-5.4 1.5-5.7.5-.3-1.1 1.2-3.1 4.5-4.2 2.9-.9 5.3-1.1 5.6-.6.3.7-1.2 2.9-4.4 4.3zm28.8-60.3s4.8.5 4.1 9.1C45.8 74.2 38.2 77 38.2 77l4.3-22.5zM18 49.3c3.6-13.5 12.3-15.9 22.4-15.8l-2.1 6.8s-17.9 2.1-12.4 15.8c0 0 3.4-4.6 8.2-4.4L29 77.5c.1 0-16.5-7.7-11-28.2zm14.4 54.4s3-8.7 4.4-18.5c0 0 15.3-3.9 17.4-22.8 1.5-13.7-7.8-20-7.8-20s.6-6.6 1.9-7.6c0 0 19.4 1.9 19.4 26.7 0 24.6-18.3 45.1-35.3 42.2zM254 25.1c-1.9 0-3.2-1.4-3.2-3.3 0-1.8 1.3-3.3 3.2-3.3 1.8 0 3.2 1.4 3.2 3.3 0 1.8-1.3 3.3-3.2 3.3zm0 .5c2.1 0 3.8-1.7 3.8-3.8 0-2.1-1.7-3.8-3.8-3.8-2.1 0-3.8 1.7-3.8 3.8 0 2.1 1.7 3.8 3.8 3.8zm.6-3.7c.7 0 1.3-.3 1.3-1.2 0-.7-.4-1.1-1.5-1.1h-1.9v4.2h.5v-2h1l1.2 2h.6l-1.2-1.9zm-1.5-.4V20h1.2c.5 0 1.1.1 1.1.7 0 .9-.9.8-1.5.8h-.8zm-108 88.2c-3.1 0-4.8-1.3-5.8-3.7l2.8-1.8c.8 1.6 1.8 2.5 3.1 2.5s2-.7 2-1.8c0-1-.4-1.6-2.8-2.5-3.2-1.3-4.8-2.5-4.8-5.4 0-3.2 2.3-5 5.2-5 2.9 0 4.3 1.2 5.4 3.3l-2.8 1.8c-.8-1.4-1.5-2.1-2.6-2.1s-1.7.7-1.7 1.6c0 1.1.5 1.7 2.9 2.6 3.2 1.3 4.8 2.5 4.8 5.4-.2 3-2.2 5.1-5.7 5.1zm7.8-.1V92.1h3.4v17.4h-3.4zm15.4 0L163 98.9v10.7h-3.2V92.1h3.4l5 10.3V92.1h3.2v17.4h-3.1zm11.3.2c-3.8 0-6.2-3.2-6.2-8.9s2.3-9 6.2-9c3.2 0 4.9 1.8 5.6 5.4l-3.3.9c-.4-2.3-1.1-3.3-2.4-3.3-1.4 0-2.6 1.8-2.6 5.9 0 4.1 1.1 5.9 2.7 5.9 1.2 0 2-1.3 2.5-3.7l3.2 1c-.7 3.7-2.4 5.8-5.7 5.8zm8-.2V92.1h9.6v3.1H191v3.7h4.5v3.1H191v4.4h6.3v3.1h-9.7zm18.5 0v-2.5h2.3V95.4c-.5.2-1.5.5-2.3.6v-2.4c1-.3 2.1-.7 2.9-1.4h2.6v14.9h2v2.5h-7.5zm14.3.2c-2.1 0-3.3-.7-4.4-1.7l1.5-2.6c.9.8 1.8 1.3 2.9 1.3 1.7 0 2.6-1.4 2.8-4.8-.8.7-1.7 1.2-3 1.2-2.6 0-4.5-1.6-4.5-5.5 0-3.7 2.3-5.9 5.1-5.9 3.5 0 5.5 2.5 5.5 8.9.1 5.8-2.1 9.1-5.9 9.1zm.4-15.1c-1.2 0-2 1-2 3 0 1.8.6 2.8 1.9 2.8 1 0 1.7-.4 2.4-1.2-.1-3.5-1-4.6-2.3-4.6zm11.8 15.1c-2.6 0-4.4-1.2-5.2-3.9l2.7-1.2c.5 1.4 1.2 2.3 2.5 2.3 1.2 0 2-.9 2-2.5 0-1.7-.9-2.6-2.8-2.6h-.9v-2.8h1c1.6 0 2.5-.8 2.5-2.3 0-1.2-.7-2-1.8-2s-1.6.8-2.1 1.8l-2.7-1.1c.9-2.4 2.5-3.6 5-3.6 3.1 0 4.9 1.8 4.9 4.5 0 2.3-1.2 3.4-2.7 4 1.8.6 2.9 1.9 2.9 4.2 0 3-1.9 5.2-5.3 5.2zm6.9-.2v-.4c0-3.3 1.4-5.3 5-8.6 1.5-1.3 2-2.2 2-3.6 0-1.2-.6-2-1.6-2s-1.7.8-2.3 2.8l-2.9-.9c.8-3.4 2.6-4.9 5.3-4.9 2.8 0 4.8 1.7 4.8 4.8 0 2.7-1.1 4.1-3.6 6.4-1.8 1.6-2.6 2.6-2.9 3.6h6.6v2.9h-10.4z"/></svg>