<svg xmlns="http://www.w3.org/2000/svg" viewBox="0 0 754.4 163.6"><path d="M150.9 163.6H0V0h150.9v163.6zM127.4 74l.1-49.5c0-.3-.1-.6-.3-.8-.2-.2-.5-.3-.8-.3H78.6c-.3 0-.5.1-.7.3-.2.2-.3.4-.4.7-.1.3 0 .5.1.8l10.1 18.9c.1.2.2.3.4.4.2.1.4.2.6.2h16.9c.2 0 .4.1.5.2.1.1.2.3.2.5v28c0 .2-.1.4-.2.5-.1.1-.3.2-.5.2s-.4-.1-.5-.2L54.6 23.7c-.2-.2-.5-.3-.8-.3H24.5c-.3 0-.6.1-.8.3-.2.2-.3.5-.3.8v49.3c0 15.1 5.2 30.2 14.5 42.1 9.3 11.9 22.6 20.6 37.3 24.2h.5c10.1-2.5 19.6-7.4 27.5-14.1.2-.2.3-.4.4-.7 0-.3 0-.5-.1-.7l-9.8-18.3c-.1-.2-.3-.4-.5-.5-.2-.1-.4-.1-.7-.1-.2 0-.4.1-.6.3-4.5 4.1-9.9 7.2-15.7 9-.5.2-1.1.2-1.6 0-8.7-2.8-16.4-8.4-21.8-15.7-5.3-7.3-8.3-16.3-8.3-25.4V45.3c0-.2.1-.4.2-.5.1-.1.3-.2.5-.2s.4.1.5.2l68.1 67.7c.2.2.4.3.6.3.2 0 .4 0 .6-.1.2-.1.4-.2.5-.4 7.7-11.3 11.8-24.8 11.8-38.5M685.6 99.6c-2.4-1.3-21-8.4-32.7-12.1-11.7-3.7-35.2-10.7-43-11.7-7.3-.9-12.1-1.2-16.5.2-4.5 1.4-15.7 8.4-19.8 11.7-4.1 3.3-12.1 11.5-12.6 14.4-.6 2.9.2 6.8 3.7 8.9 3.5 2.1 13.6 7 24.9 9.3 10.8 2.2 18.5 2.7 30.1 2.7 11.7 0 31.5-1.2 39.7-2.3 8.2-1.2 22.9-3.7 25.7-5.8 2.7-2.1 5.8-5.1 5.8-7s-3.5-7.4-5.3-8.3zm-14.8 8.3c-.2.8-.8 1.2-6 2.3-5.2 1.2-20.2 4.1-37.3 4.3-17.1.2-33.1-2.9-40.2-4.7-7.2-1.7-11.7-4.9-12.1-8-.4-3.1 6.2-7.2 8.9-9.1 2.7-1.9 11.1-6.8 13.2-7.8 2.1-1 7.2-.4 13.8.8 6.6 1.2 32.5 8.9 38.7 10.7 6.2 1.8 20.6 7 21 7.8.4.8.2 2.9 0 3.7zM419.7 114.3c7.2-1.9 14-3.9 15.6-3.7 1.6.2.4 7-.2 9-.6 2-23.7 7.8-34.2 9.9-10.5 2.1-30.1 4.9-41.8 4.5-11.1-.4-18.8-1.6-20-2.9-1.1-1.3-2.3-5.3-2.3-7.8 0-1.9 5-6.4 8-8.9 2.9-2.5 9.8-6.8 16.1-9.7 8.3-3.9 15.7-6.4 16.7-7.6 1-1.1 0-4.3-1-4.9-1-.6-11.5-.2-17.5-.2s-15-.4-16.7-.8c-1.7-.4-3.5-3.7-3.5-6.4 0-2.3 11.9-12 17.9-17.1 6-5.1 18.9-12.8 20.4-13.4 1.6-.6 9.4 2.4 9.7 3.5.6 2.1-8.3 6.8-12.6 9.5-4.3 2.7-13 9.1-13.6 10.3-.6 1.2 0 4.3 1.1 5 1.1.8 12.4.2 21.6 0 9.1-.2 21.4 1 23.1 1.4 1.7.4 3.1 7.6 2.6 9.1-.6 1.6-5.4 4.3-9.5 6.2-4.1 2-20.9 7.7-26.3 9.9-6.4 2.7-17.7 8.6-18.3 9.9-.8 1.8.3 4.7 1.4 5.3 1.6.8 15-.6 23.1-1.7 8.1-1.2 33-6.4 40.2-8.4zM453.7 117.6c0 2.5 2.9 6.6 4.1 6.4 1.1-.2 4.5-4.8 5.4-6.2 1-1.4 7.8-36 9.5-44 1.7-8 4.5-22.7 5.4-23.5 1-.8 3.8-.5 4.5.2.7.8 4.1 10.5 5.6 17.1 1.6 6.6 4.5 23.1 5.1 30.7.6 7.6 1.6 29 1.7 30.7.2 1.8 5 7.7 6.2 8 1.6.4 6.5-3.2 7.6-4.3 1.1-1.1 3.7-9.2 4.7-12.4 1-3.3 4.3-17.1 5-18.2.8-1.1 5.3-1 6.2.2 1 1.1 4.9 16.9 5.9 17.9s4.7 1.4 6 1c1.4-.4 1.5-5.2 1.7-7.2.2-2-7-18.8-10.7-31.7-3.7-12.9-6-26-6.8-28.4-.8-2.3-3.7-5.4-5.2-5.6-1.5-.2-5.1 3.9-5.7 5.4-.6 1.6.6 12.6 1.2 25.1.5 9.7-2.3 22.3-3.3 22.9-1 .6-3.7 1.1-4.3 0-.6-1.1-2-17-2.7-21.4-1.3-7.6-5.6-24.5-6.9-28.8-1.4-4.3-7.2-18.5-8-19.7-.8-1.1-6.4-4.8-7.8-4.8-1.4 0-6.8 5.6-7.5 7.6-.8 2-5.4 27-8.6 42.2-3 15.1-8.5 39.1-8.3 40.8zM243.7 81.3c1.7 2.9 11.1 16.1 15.6 22.4 5.3 7.4 13.4 17.5 18.7 22.6 3.7 3.5 9.7 9.7 12.4 9.9 2.3.2 6-3.3 8.7-6.2 2.9-3.1 13.4-30.9 15.7-37.1 2.3-6.2 8.2-22 8.4-23.5.2-1.6-1.9-6.2-3.1-6.8-1.2-.6-4.5 2.3-5.4 3.7-1 1.4-10.9 27-12.8 32.7-1.9 5.6-8.2 20.8-9.7 22.4-1.4 1.4-4.7.6-5.8 0-1.2-.6-2.1-1.7-5.6-5.3-3.5-3.5-9.1-11.1-12.8-16.1-3.7-5-12.4-19.1-15.9-23.9-3.5-4.9-10.7-15.6-12.6-20.4-1.9-4.9-2.3-10.1-2.3-12.6s-.2-12.6-.8-13.8c-.6-1.2-5.1-7.6-6.8-7.6-1.7 0-3.9 5.4-5.1 7.4-1.2 1.9 0 12.2 0 17.5 0 5.3-2.5 35.8-2.9 43.6-.4 7.8-1.9 32.9-1.6 35.2.4 2.3 2.7 5.8 4.5 7.8 1.7 1.9 6-9.1 6-10.5 0-1.4 1.2-26.4 1.4-31.3.2-4.9.8-17.3 1.7-17.9 1-.6 3.5-.2 4.3 0 .6-.2 4.1 4.9 5.8 7.8zM672.8 38.5c10 0 17.9 8.1 17.9 18.3 0 10.3-8 18.4-18 18.4s-18.1-8-18.1-18.4c0-10.2 8.1-18.3 18.2-18.3zm-.1 2.8c-8 0-14.6 6.9-14.6 15.4 0 8.7 6.6 15.5 14.7 15.5 8.1.1 14.6-6.8 14.6-15.4s-6.5-15.5-14.7-15.5zm-3.4 26.1h-3.2V47c1.7-.2 3.3-.5 5.8-.5 3.1 0 5.1.6 6.3 1.5 1.2.9 1.9 2.3 1.9 4.2 0 2.7-1.8 4.3-4 5v.2c1.8.3 3 1.9 3.4 5 .5 3.2 1 4.4 1.3 5h-3.4c-.5-.6-1-2.5-1.4-5.2-.5-2.6-1.8-3.6-4.4-3.6h-2.3v8.8zm0-11.3h2.4c2.7 0 5-1 5-3.5 0-1.8-1.3-3.6-5-3.6-1.1 0-1.8.1-2.4.2v6.9z"/></svg>