<svg xmlns="http://www.w3.org/2000/svg" viewBox="0 0 532.7 329.9"><path d="M394.6 151.3V174h53.8v27.3h-53.8v22.6h53.8v27.3h-92.6c-5.5 0-9.9-4.5-9.9-9.9V124h102.6v27.3h-53.9zm73.7 99.8h39c5.4 0 9.7-4.3 9.7-9.7V124h-48.7v127.1zm-128.6 29.5v15.5c0 8.5-6.9 15.3-15.3 15.3h-41c-8.5 0-15.3-6.9-15.3-15.3v-15.5c0-8.5 6.9-15.3 15.3-15.3h41c8.4-.1 15.3 6.8 15.3 15.3zm-13.9 0c0-.8-.6-1.4-1.4-1.4h-41.1c-.8 0-1.4.6-1.4 1.4v15.5c0 .8.6 1.4 1.4 1.4h41c.8 0 1.4-.7 1.4-1.4v-15.5zm-132 0v15.5c0 8.5 6.9 15.3 15.3 15.3h50.5v-13.9h-50.5c-.8 0-1.4-.7-1.4-1.4v-15.5c0-.8.7-1.4 1.4-1.4h50.5v-13.9h-50.5c-8.5-.1-15.3 6.8-15.3 15.3zm243.1 0v15.5c0 8.5-6.9 15.3-15.3 15.3h-41c-8.5 0-15.3-6.9-15.3-15.3v-15.5c0-8.5 6.9-15.3 15.3-15.3h41c8.4-.1 15.3 6.8 15.3 15.3zm-14 0c0-.8-.7-1.4-1.4-1.4h-41c-.8 0-1.4.6-1.4 1.4v15.5c0 .8.6 1.4 1.4 1.4h41c.8 0 1.4-.7 1.4-1.4v-15.5zm94.1 0v15.5c0 8.5-6.9 15.3-15.3 15.3h-42.4v18.5h-13.9v-64.7h56.4c8.3 0 15.2 6.9 15.2 15.4zm-14 0c0-.8-.6-1.4-1.4-1.4h-42.4v18.3h42.4c.8 0 1.4-.7 1.4-1.4v-15.5zm-150-1.1c-.3-.5-.8-.5-1.2 0l-4.8 7.8c-.3.5-.3 1.4 0 1.9l4.8 7.8c.3.5.8.5 1.2 0l4.8-7.8c.3-.5.3-1.4 0-1.9l-4.8-7.8zm83.6-246l80.3 70.1h-20.2l-59.6-50.8-46.6 50.8L300 22.4l-76.5 101.7h13.9c2.8 0 5.1 2.3 5.1 5.1v12.6l34.8-17.7H326v66.5l-19.2 19.2 28.1 41.4h-54.7l-22.6-33.3h-15.1v33.3h-48.7v-87.5l-52.1 69.2 34.6 78.5L0 265.2l37.4-77.5h-20L49.1 124H34.3l47-90.8 48.1 90.8h-14.9l18.8 38.9L295.9 0l10.2 9.2.1-.1 78.3 68.3 52.1-43.9zM242.5 187.7h34.8v-36.1l-34.8 17.7v18.4zm283.3-62.9h-4.2v.7h1.7v4.6h.9v-4.6h1.7v-.7zm6.9 0h-1.3l-1.6 4-1.6-4h-1.4v5.3h.9v-4.4l1.7 4.4h.6l1.7-4.4v4.4h.9v-5.3z"/></svg>