<svg xmlns="http://www.w3.org/2000/svg" viewBox="0 0 345.5 215.7"><path d="M10.9 184.3c0-2.6 1.6-4.4 11.1-4.4 6.3 0 12.8.2 20.8 2.7v-9.2c-4-1.2-10.5-2.2-20.6-2.2C5 171.2 0 176.4 0 184.3c0 9.7 7.2 12.2 21.9 13.8 8.1.9 12.2 1 12.2 4.1 0 2.8-2.1 4-11.3 4.1-6.5 0-14.3-.7-21.5-3.3v9.7c7.6 2 13.7 2.6 21.6 2.6 13 0 22.1-2.6 22.1-13.3 0-10.2-7.4-11.6-21.6-13.1-6.9-.8-12.5-1.3-12.5-4.6m71.2 14.5c0 6.2-5.3 7.5-12.9 7.5-8.8 0-10.5-1.7-10.5-4.2 0-2.7 2.8-3.3 10-4.3 5.8-.8 12-2.2 13.5-3.7v4.7zm9.7 1.9v-15.4c0-12.7-11.1-14.5-21.5-14.5-5.1 0-12.4 1.1-18.3 2.5v9.1c7.4-1.5 14.1-2.4 18.3-2.4 4.7 0 10.8.3 10.8 3.8 0 2.9-3.6 3.9-10.8 4.9-13 1.7-22.3 3.4-22.3 13.4 0 10.3 8.1 13.3 22.3 13.3 15.9 0 21.5-5.6 21.5-14.7m23.1 13.9c3.6 0 8.1-.1 11.4-.6l-1.4-8.6c-2.7.3-6.8.5-9.9.5-5.6 0-9.4-2.3-9.4-6.5v-28h-9.7v28.8c-.1 11.9 10.4 14.5 19 14.4zm46.9-21.1c-.1 1.8-.2 3.4-.4 5-.7 5.2-3.8 7.7-9.4 7.7h-5.2c-5.7 0-8.7-2.5-9.4-7.7-.2-1.6-.3-3.3-.4-5 .1-1.8.2-3.5.4-5 .7-5.2 3.7-7.7 9.4-7.7h5.2c5.7 0 8.7 2.5 9.4 7.7.2 1.5.3 3.1.4 5m9.1 9c.5-2.6.7-5.4.7-8.4v-1.4c-.1-3-.2-5.8-.7-8.4-1.3-8.9-7.5-13.3-18.9-13.3h-5.2c-11.4 0-17.6 4.4-18.9 13.3-.5 2.5-.7 5.3-.7 8.4v1.4c.1 3 .2 5.8.7 8.4 1.3 8.8 7.5 13.2 18.9 13.2h5.2c11.4 0 17.6-4.3 18.9-13.2m68.8 11.8h9.9v-20.2c0-3.4-.2-6.7-.7-9.7-1.3-8.9-7.5-13.2-18.9-13.2h-2.8c-6.6 0-11.6 1.5-14.8 4.5-3.1-3-8.1-4.5-14.7-4.5h-2.8c-11.4 0-17.6 4.4-18.9 13.2-.6 3-.7 6.3-.7 9.7v20.2h9.9v-20.2c0-2 .2-3.9.4-5.7.6-5.2 3.7-7.7 9.3-7.7h2.8c5.7 0 8.7 2.5 9.4 7.7.2 1.8.4 3.7.4 5.7v20.2h9.9v-20.2c0-2 .1-3.9.4-5.7.7-5.2 3.7-7.7 9.4-7.7h2.8c5.7 0 8.7 2.5 9.3 7.7.3 1.8.4 3.7.4 5.7v20.2zm48.5-20.8c0 1.8-.1 3.4-.4 5-.6 5.2-3.7 7.7-9.4 7.7h-5.2c-5.7 0-8.8-2.5-9.4-7.7-.2-1.6-.4-3.3-.4-5 0-1.8.1-3.5.4-5 .6-5.2 3.7-7.7 9.4-7.7h5.2c5.7 0 8.8 2.5 9.4 7.7.3 1.5.4 3.1.4 5m9.2 9c.4-2.6.6-5.4.7-8.4v-1.4c-.1-3-.2-5.8-.7-8.4-1.3-8.9-7.6-13.3-19-13.3h-5.2c-11.5 0-17.7 4.4-19 13.3-.4 2.5-.7 5.3-.7 8.4v1.4c0 3 .2 5.8.7 8.4 1.3 8.8 7.5 13.2 19 13.2h5.2c11.5 0 17.7-4.3 19-13.2m48.1 11.8v-20.1c0-3.5-.2-6.8-.7-9.7-1.3-8.9-7.5-13.3-18.9-13.3h-4.6c-11.4 0-17.7 4.4-19 13.3-.5 2.9-.7 6.2-.7 9.7v20.1h9.9v-20.1c0-2.1.1-4 .4-5.7.7-5.2 3.8-7.7 9.4-7.7h4.6c5.7 0 8.7 2.5 9.3 7.7.2 1.7.4 3.6.4 5.7v20.1h9.9zM233.9 0c7.8 0 14.2 6.3 14.2 14.2V138c0 7.8-6.3 14.2-14.2 14.2H110c-7.8 0-14.2-6.3-14.2-14.2V14.2C95.9 6.3 102.2 0 110 0h123.9M161 113.2c-1.4 0-3.3-.5-5.3-1.6l-12.2-6.9c-1.8-1-3.8-1.7-5.3-1.7h-15.7c-1.5 0-2.8 1.3-2.8 2.8v16c0 3.1 2.6 5.5 5.6 5.8 31.3 3 62.1 3 93.4 0 3.1-.3 5.6-2.8 5.6-5.9V95.2c0-4.4-2.5-8.6-6.1-10.6L155.1 49c-1.5-.8-2.5-2.7-2.5-4.6 0-3 1.9-5.4 4.9-5.4H183c1.4 0 3.3.5 5.3 1.6l12.2 6.9c1.8 1 3.8 1.7 5.3 1.7h15.7c1.5 0 2.8-1.3 2.8-2.8v-16c0-3.1-2.6-5.5-5.6-5.8-31.3-3-62.1-3-93.4 0-3.1.3-5.6 2.8-5.6 5.9v26.7c0 4.4 2.4 8.6 6.1 10.6l63.1 35.5c1.5.8 2.5 2.7 2.5 4.6 0 3-1.9 5.4-4.9 5.4H161z"/></svg>