<svg xmlns="http://www.w3.org/2000/svg" viewBox="0 0 424 116.5"><path d="M0 0h40l23.5 39.3L87 0h39.8L81.5 67.7v48.8H45.4V67.7L0 0zM134.9 0h96.5v28.7H171v16.6h52.7v26.3H171v16.6h62.1v28.3h-98.2V0zM245.1 0h109.4v28.7h-36.7v87.8h-36V28.7h-36.7V0zM367.5 0h36.1v116.5h-36.1V0z"/><g><path d="M408.6 5.6c.4-1 1-1.8 1.8-2.5.7-.7 1.6-1.3 2.6-1.7 1-.4 2-.6 3.1-.7 1.1 0 2.1.2 3.1.5 1 .4 1.8.9 2.5 1.6.7.7 1.3 1.5 1.7 2.4.4 1 .6 2 .6 3.1s-.2 2.2-.7 3.2c-.4 1-1 1.8-1.7 2.5s-1.6 1.3-2.6 1.7c-1 .4-2 .6-3.1.7-1.1 0-2.1-.2-3.1-.5-1-.4-1.8-.9-2.6-1.6-.7-.7-1.3-1.5-1.7-2.5-.4-1-.6-2-.6-3.1s.3-2.2.7-3.1zm1.3 5.7c.3.8.8 1.5 1.4 2.1.6.6 1.3 1.1 2.1 1.4.8.3 1.7.5 2.6.5.9 0 1.8-.2 2.6-.6.8-.4 1.5-.8 2.1-1.5.6-.6 1.1-1.3 1.4-2.2.3-.8.5-1.7.5-2.7 0-.9-.2-1.8-.5-2.6s-.8-1.5-1.4-2.1c-.6-.6-1.3-1-2.1-1.4-.8-.3-1.6-.5-2.6-.5-.9 0-1.8.2-2.6.6-.8.4-1.5.8-2.1 1.4-.6.6-1.1 1.3-1.4 2.1-.3.8-.5 1.7-.5 2.6 0 1.2.1 2.1.5 2.9zm6.6-7.3c1.1 0 1.9.2 2.5.6.5.4.8 1.1.8 2 0 .8-.2 1.4-.7 1.8-.5.4-1 .6-1.7.7l2.6 4h-1.6l-2.5-3.9h-1.5v4H413l.1-9.2h3.4zm-.7 4.1h.9c.3 0 .5-.1.8-.2.2-.1.4-.3.6-.5.1-.2.2-.5.2-.9 0-.3-.1-.6-.2-.7-.1-.2-.3-.3-.5-.4-.2-.1-.4-.2-.7-.2H414.3v2.9h1.5z"/></g></svg>